<?xml version="1.0" encoding="UTF-8"?>
<svg version="1.1" xmlns="http://www.w3.org/2000/svg" width="500" height="500">
<path d="M0 0 C165 0 330 0 500 0 C500 165 500 330 500 500 C335 500 170 500 0 500 C0 335 0 170 0 0 Z " fill="#FEFEFE" transform="translate(0,0)"/>
<path d="M0 0 C1.48886719 0.30744141 1.48886719 0.30744141 3.0078125 0.62109375 C5.72724191 1.29055573 8.34200944 2.11635016 11 3 C12.00039307 3.3081665 12.00039307 3.3081665 13.02099609 3.62255859 C57.52540013 17.36698769 93.7681658 47.7734743 115.51904297 88.87011719 C123.92021638 105.38961453 130.37045534 121.8093466 134 140 C134.15243164 140.75490723 134.30486328 141.50981445 134.46191406 142.28759766 C141.89418382 180.51643225 134.9621661 220.07371488 116 254 C115.39929688 255.15886719 114.79859375 256.31773437 114.1796875 257.51171875 C110.4506835 264.47824714 106.17767757 270.64998258 101.25 276.8125 C100.69481689 277.51310547 100.13963379 278.21371094 99.56762695 278.93554688 C99.03484131 279.58201172 98.50205566 280.22847656 97.953125 280.89453125 C97.48036133 281.47050049 97.00759766 282.04646973 96.52050781 282.63989258 C94.71260936 284.25707342 93.33441125 284.46878016 91 285 C89.17800081 286.70720442 87.50049605 288.41959095 85.8125 290.25 C54.93526804 322.20810396 10.84154864 338.26411624 -32.95385742 339.05322266 C-40.95382871 339.12458078 -48.84352324 338.67202767 -56.8125 338 C-57.99392578 337.90460938 -59.17535156 337.80921875 -60.39257812 337.7109375 C-63.26213071 337.47858506 -66.13121003 337.24155526 -69 337 C-45.34153121 340.94599332 -21.82271408 341.57147336 1.83837891 337.36376953 C5.2132211 336.79583246 8.60143782 336.39914698 12 336 C9.17830254 337.88113164 7.82169086 338.40808695 4.61328125 339.03515625 C3.75669922 339.20466797 2.90011719 339.37417969 2.01757812 339.54882812 C1.12490234 339.71833984 0.23222656 339.88785156 -0.6875 340.0625 C-1.56083984 340.23587891 -2.43417969 340.40925781 -3.33398438 340.58789062 C-48.06543657 349.30701611 -93.34282202 338.92498155 -131.01171875 314.0078125 C-163.4841167 291.15862153 -185.31030123 259.90797761 -199 223 C-199.25410645 222.33452148 -199.50821289 221.66904297 -199.77001953 220.98339844 C-210.6461175 192.09636131 -211.35873834 157.74333106 -204 128 C-203.81808105 127.24477051 -203.63616211 126.48954102 -203.44873047 125.71142578 C-200.61104769 114.24657874 -196.1483018 103.60613042 -191 93 C-190.51442627 91.99791504 -190.51442627 91.99791504 -190.01904297 90.97558594 C-184.07473361 78.89355808 -176.33460659 64.82690537 -166 56 C-165.01 56 -164.02 56 -163 56 C-160.78249448 53.92594497 -158.70349657 51.83099956 -156.625 49.625 C-125.07579689 17.17895428 -81.32369897 1.59807799 -36.625 0.75 C-34.07695843 0.80040082 -31.54459995 0.8811366 -29 1 C-27.71367676 1.05365723 -27.71367676 1.05365723 -26.40136719 1.10839844 C-10.98806661 1.83279713 3.23189975 4.57040334 18 9 C-13.66207991 -2.21269593 -51.57904908 -5.02708505 -83.87109375 5.546875 C-86.28698429 6.06108289 -87.65623106 5.66325565 -90 5 C-84.02510016 3.2319887 -78.02864746 1.57490972 -72 0 C-70.75089844 -0.33 -69.50179687 -0.66 -68.21484375 -1 C-46.66609943 -5.71307973 -21.482077 -4.47857651 0 0 Z " fill="#FDFDFD" transform="translate(292,83)"/>
<path d="M0 0 C1.48886719 0.30744141 1.48886719 0.30744141 3.0078125 0.62109375 C5.72724191 1.29055573 8.34200944 2.11635016 11 3 C12.00039307 3.3081665 12.00039307 3.3081665 13.02099609 3.62255859 C57.52540013 17.36698769 93.7681658 47.7734743 115.51904297 88.87011719 C123.92021638 105.38961453 130.37045534 121.8093466 134 140 C134.15243164 140.75490723 134.30486328 141.50981445 134.46191406 142.28759766 C141.89418382 180.51643225 134.9621661 220.07371488 116 254 C115.39929688 255.15886719 114.79859375 256.31773437 114.1796875 257.51171875 C110.4506835 264.47824714 106.17767757 270.64998258 101.25 276.8125 C100.69481689 277.51310547 100.13963379 278.21371094 99.56762695 278.93554688 C99.03484131 279.58201172 98.50205566 280.22847656 97.953125 280.89453125 C97.48036133 281.47050049 97.00759766 282.04646973 96.52050781 282.63989258 C94.71260936 284.25707342 93.33441125 284.46878016 91 285 C89.17800081 286.70720442 87.50049605 288.41959095 85.8125 290.25 C54.93526804 322.20810396 10.84154864 338.26411624 -32.95385742 339.05322266 C-40.95382871 339.12458078 -48.84352324 338.67202767 -56.8125 338 C-57.99392578 337.90460938 -59.17535156 337.80921875 -60.39257812 337.7109375 C-63.26213071 337.47858506 -66.13121003 337.24155526 -69 337 C-45.34153121 340.94599332 -21.82271408 341.57147336 1.83837891 337.36376953 C5.2132211 336.79583246 8.60143782 336.39914698 12 336 C9.17830254 337.88113164 7.82169086 338.40808695 4.61328125 339.03515625 C3.75669922 339.20466797 2.90011719 339.37417969 2.01757812 339.54882812 C1.12490234 339.71833984 0.23222656 339.88785156 -0.6875 340.0625 C-1.56083984 340.23587891 -2.43417969 340.40925781 -3.33398438 340.58789062 C-48.06543657 349.30701611 -93.34282202 338.92498155 -131.01171875 314.0078125 C-163.4841167 291.15862153 -185.31030123 259.90797761 -199 223 C-199.25410645 222.33452148 -199.50821289 221.66904297 -199.77001953 220.98339844 C-210.6461175 192.09636131 -211.35873834 157.74333106 -204 128 C-203.81808105 127.24477051 -203.63616211 126.48954102 -203.44873047 125.71142578 C-200.61104769 114.24657874 -196.1483018 103.60613042 -191 93 C-190.51442627 91.99791504 -190.51442627 91.99791504 -190.01904297 90.97558594 C-184.07473361 78.89355808 -176.33460659 64.82690537 -166 56 C-165.01 56 -164.02 56 -163 56 C-160.78249448 53.92594497 -158.70349657 51.83099956 -156.625 49.625 C-125.07579689 17.17895428 -81.32369897 1.59807799 -36.625 0.75 C-34.07695843 0.80040082 -31.54459995 0.8811366 -29 1 C-27.71367676 1.05365723 -27.71367676 1.05365723 -26.40136719 1.10839844 C-10.98806661 1.83279713 3.23189975 4.57040334 18 9 C-13.66207991 -2.21269593 -51.57904908 -5.02708505 -83.87109375 5.546875 C-86.28698429 6.06108289 -87.65623106 5.66325565 -90 5 C-84.02510016 3.2319887 -78.02864746 1.57490972 -72 0 C-70.75089844 -0.33 -69.50179687 -0.66 -68.21484375 -1 C-46.66609943 -5.71307973 -21.482077 -4.47857651 0 0 Z M-150 54 C-150.67804688 54.62390625 -151.35609375 55.2478125 -152.0546875 55.890625 C-171.34181887 74.32571442 -184.34392112 99.71285485 -192 125 C-192 123.35 -192 121.7 -192 120 C-194.13344879 120.78709789 -194.13344879 120.78709789 -194.65429688 122.6796875 C-194.93370117 123.76636719 -194.93370117 123.76636719 -195.21875 124.875 C-195.42798096 125.68573975 -195.63721191 126.49647949 -195.8527832 127.33178711 C-206.46814093 171.0946104 -202.30845614 218.32195836 -178.57714844 257.33935547 C-172.08634028 267.48368541 -164.41760242 276.41822448 -156 285 C-156 281.23425395 -156.80081325 280.87506001 -159.375 278.25 C-174.42712051 261.76686803 -183.92267453 240.92732332 -191 220 C-190.62415771 220.95700806 -190.62415771 220.95700806 -190.24072266 221.93334961 C-180.40690262 246.7676475 -168.38869241 266.68368809 -150 286 C-149.29617187 286.76828125 -148.59234375 287.5365625 -147.8671875 288.328125 C-126.94741052 310.44104515 -97.47938907 324.12651668 -68.3125 331.25 C-67.66047607 331.41322754 -67.00845215 331.57645508 -66.33666992 331.74462891 C-27.60633305 340.74321515 14.95375324 330.65411038 48.25 310.125 C73.89962231 293.80308028 93.09375436 272.63225979 108.1015625 246.2890625 C110 243 110 243 111 242 C110.484375 242.94875 109.96875 243.8975 109.4375 244.875 C108.7259375 246.421875 108.7259375 246.421875 108 248 C108.33 248.66 108.66 249.32 109 250 C130.11376657 209.70164351 137.1750275 162.7223503 123.56640625 118.6015625 C114.6682039 91.61991666 99.3910032 70.37239777 80 50 C79.34 50.33 78.68 50.66 78 51 C78.67482422 51.62261719 78.67482422 51.62261719 79.36328125 52.2578125 C98.65654863 70.73913877 116.75088826 99.16067394 121 126 C120.6596875 124.88625 120.319375 123.7725 119.96875 122.625 C116.57855761 111.83401882 112.40083581 101.92924989 107 92 C106.45730469 90.97648437 105.91460937 89.95296875 105.35546875 88.8984375 C83.66280276 49.73552226 46.27735522 22.61655874 3.69921875 10.25390625 C-52.19213244 -5.04544865 -108.74640294 15.60556314 -150 54 Z " fill="#242424" transform="translate(292,83)"/>
<path d="M0 0 C1.48886719 0.30744141 1.48886719 0.30744141 3.0078125 0.62109375 C5.72724191 1.29055573 8.34200944 2.11635016 11 3 C12.00039307 3.3081665 12.00039307 3.3081665 13.02099609 3.62255859 C57.52540013 17.36698769 93.7681658 47.7734743 115.51904297 88.87011719 C123.92021638 105.38961453 130.37045534 121.8093466 134 140 C134.15243164 140.75490723 134.30486328 141.50981445 134.46191406 142.28759766 C141.88208149 180.45418239 135.02795123 220.14372711 116 254 C115.34 253.34 114.68 252.68 114 252 C113.01 253.65 112.02 255.3 111 257 C110.34 256.67 109.68 256.34 109 256 C109.6290625 254.94425781 110.258125 253.88851563 110.90625 252.80078125 C121.77794075 234.16329216 132.50937567 211.07947625 132 189 C131.79246094 190.20011719 131.58492188 191.40023437 131.37109375 192.63671875 C127.72994946 212.72108318 121.17335888 230.79889111 112 249 C111.01 249 110.02 249 109 249 C109.27150879 248.43829102 109.54301758 247.87658203 109.82275391 247.29785156 C129.69120558 205.84568621 136.51143738 158.24754605 121 114 C111.95306702 89.47940209 97.84304536 69.84391251 80 51 C82.14395406 53.73836786 84.33705628 56.40502239 86.6640625 58.98828125 C104.25237705 78.62520098 120.46424401 106.43763311 124 133 C123.69982303 134.34118704 123.37097825 135.67664667 123 137 C122.82460693 136.3922876 122.64921387 135.7845752 122.46850586 135.15844727 C108.83533031 88.2703926 83.68746596 49.99375649 40.26171875 25.64453125 C1.15018744 5.92482505 -40.86600477 0.83169301 -82.97265625 13.92431641 C-108.57694731 22.39010934 -130.3194634 36.72282933 -150 55 C-150.60457031 55.55042969 -151.20914063 56.10085937 -151.83203125 56.66796875 C-160.13635002 64.54443035 -166.8813313 74.37428948 -173 84 C-173.66 83.34 -174.32 82.68 -175 82 C-175.99 82.99 -175.99 82.99 -177 84 C-176.40776849 79.83395767 -174.03200139 76.81970352 -171.625 73.5 C-170.96213989 72.57948853 -170.96213989 72.57948853 -170.28588867 71.64038086 C-165.64372235 65.32022495 -160.43535103 59.63854172 -155 54 C-154.41992188 53.36835938 -153.83984375 52.73671875 -153.2421875 52.0859375 C-141.7084481 39.85669623 -126.5898553 30.18000827 -112 22 C-112 21.01 -112 20.02 -112 19 C-110.67401989 16.34803977 -109.54262369 16.23985069 -106.80078125 15.1953125 C-105.92784424 14.86096191 -105.05490723 14.52661133 -104.15551758 14.18212891 C-103.21732178 13.83327637 -102.27912598 13.48442383 -101.3125 13.125 C-99.88296997 12.58818604 -99.88296997 12.58818604 -98.42456055 12.04052734 C-84.338588 6.82262004 -70.3007544 3.16814604 -55.3125 1.875 C-54.34554199 1.7915332 -53.37858398 1.70806641 -52.38232422 1.62207031 C-44.56572892 0.98445891 -36.84033664 0.63376205 -29 1 C-27.71367676 1.05365723 -27.71367676 1.05365723 -26.40136719 1.10839844 C-10.98806661 1.83279713 3.23189975 4.57040334 18 9 C-13.66207991 -2.21269593 -51.57904908 -5.02708505 -83.87109375 5.546875 C-86.28698429 6.06108289 -87.65623106 5.66325565 -90 5 C-84.02510016 3.2319887 -78.02864746 1.57490972 -72 0 C-70.75089844 -0.33 -69.50179687 -0.66 -68.21484375 -1 C-46.66609943 -5.71307973 -21.482077 -4.47857651 0 0 Z " fill="#212121" transform="translate(292,83)"/>
<path d="M0 0 C0.99 0.495 0.99 0.495 2 1 C1.67 1.33 1.34 1.66 1 2 C1.99 2.99 1.99 2.99 3 4 C2.15179688 4.46148437 1.30359375 4.92296875 0.4296875 5.3984375 C-14.00452692 13.37217692 -26.78075172 22.94412757 -39 34 C-39.88429687 34.79921875 -40.76859375 35.5984375 -41.6796875 36.421875 C-53.28183043 47.4680047 -62.30174597 61.02654643 -70 75 C-70.34514648 75.62310059 -70.69029297 76.24620117 -71.04589844 76.88818359 C-81.45981052 95.96079911 -86.41251534 115.6613895 -90 137 C-90.33 137 -90.66 137 -91 137 C-91.17494001 130.53369884 -90.63521515 124.69829944 -89.3125 118.375 C-89.13460937 117.50834717 -88.95671875 116.64169434 -88.7734375 115.7487793 C-86.55307535 105.35614454 -83.30231738 95.54336718 -78.76953125 85.91796875 C-77.61428972 83.03866117 -77.40441421 80.06199333 -77 77 C-76.01642648 74.99187074 -75.01691264 72.99145391 -74 71 C-73.89816406 70.09894531 -73.79632813 69.19789063 -73.69140625 68.26953125 C-72.79705385 64.0403055 -70.88716606 61.2553931 -68.4375 57.75 C-67.99075928 57.09684814 -67.54401855 56.44369629 -67.08374023 55.77075195 C-57.18918599 41.45945732 -57.18918599 41.45945732 -52 38 C-51.34 38 -50.68 38 -50 38 C-47.84270101 35.91190307 -45.76031851 33.79428686 -43.6875 31.625 C-31.69580414 19.38141671 -16.04568764 6.52324685 0 0 Z " fill="#282828" transform="translate(179,101)"/>
<path d="M0 0 C0.66 0 1.32 0 2 0 C3.48046875 2.0546875 3.48046875 2.0546875 5.1875 4.875 C7.65022877 8.85246153 10.15341008 12.77543885 12.8125 16.625 C13.37582031 17.44226563 13.93914062 18.25953125 14.51953125 19.1015625 C15.87029613 21.11443961 15.87029613 21.11443961 18 22 C18.27328125 21.42403076 18.5465625 20.84806152 18.828125 20.25463867 C20.84937423 16.36583937 23.47306125 12.88537684 26 9.3125 C26.5465625 8.52810547 27.093125 7.74371094 27.65625 6.93554688 C28.1821875 6.18982422 28.708125 5.44410156 29.25 4.67578125 C29.96929687 3.6535144 29.96929687 3.6535144 30.703125 2.6105957 C32 1 32 1 34 0 C34 10.89 34 21.78 34 33 C31.69 33 29.38 33 27 33 C26.505 26.565 26.505 26.565 26 20 C22.04 25.94 22.04 25.94 18 32 C12.89004905 30.29668302 10.92901371 25.36588836 8 21 C7.67 24.96 7.34 28.92 7 33 C4.69 33 2.38 33 0 33 C0 22.11 0 11.22 0 0 Z " fill="#121212" transform="translate(158,231)"/>
<path d="M0 0 C-0.33 1.98 -0.66 3.96 -1 6 C-1.89203125 5.96519531 -2.7840625 5.93039063 -3.703125 5.89453125 C-4.87359375 5.86746094 -6.0440625 5.84039062 -7.25 5.8125 C-8.41015625 5.77769531 -9.5703125 5.74289063 -10.765625 5.70703125 C-14.28255691 6.02559392 -15.61207605 6.43582453 -18 9 C-19.07122808 11.97935309 -19.2485916 14.85117308 -19 18 C-17.23496686 20.92143417 -16.04152365 22.47923817 -13 24 C-11.62657169 24.0689472 -10.24997898 24.08467708 -8.875 24.0625 C-6.956875 24.0315625 -6.956875 24.0315625 -5 24 C-4.67 22.68 -4.34 21.36 -4 20 C-5.98 20 -7.96 20 -10 20 C-10 18.02 -10 16.04 -10 14 C-6.04 14 -2.08 14 2 14 C2.13489391 16.26921536 2.23193995 18.5407067 2.3125 20.8125 C2.37050781 22.07707031 2.42851562 23.34164063 2.48828125 24.64453125 C2 28 2 28 -0.1171875 29.921875 C-5.63304258 31.98471511 -12.48778551 32.28979628 -18.07421875 30.23828125 C-22.09921023 27.6732363 -24.51405857 24.4578243 -26 20 C-26.50442239 14.7325072 -26.6716659 10.36820832 -24.3125 5.5625 C-17.19229126 -2.32746104 -9.86301243 -3.94520497 0 0 Z " fill="#080808" transform="translate(326,233)"/>
<path d="M0 0 C7.26 0 14.52 0 22 0 C22 2.31 22 4.62 22 7 C16.72 7 11.44 7 6 7 C6 9.31 6 11.62 6 14 C10.62 14 15.24 14 20 14 C20 15.98 20 17.96 20 20 C15.38 20 10.76 20 6 20 C6 22.31 6 24.62 6 27 C11.28 27 16.56 27 22 27 C22 28.98 22 30.96 22 33 C14.74 33 7.48 33 0 33 C0 22.11 0 11.22 0 0 Z " fill="#0A0A0A" transform="translate(371,231)"/>
<path d="M0 0 C-0.52526647 4.02704293 -1.55995874 6.09777141 -4.3125 9.0625 C-4.94542969 9.74699219 -5.57835937 10.43148437 -6.23046875 11.13671875 C-7.10638672 12.05904297 -7.10638672 12.05904297 -8 13 C-8.70125 13.78375 -9.4025 14.5675 -10.125 15.375 C-12.31865249 17.27616549 -14.29251806 17.95392743 -17 19 C-18.19819172 19.75410668 -19.38452708 20.52718472 -20.5625 21.3125 C-23.93675292 23.50448627 -27.30218282 24.95077987 -31.0625 26.375 C-36.01017822 28.3365795 -39.15125303 30.51291703 -42.59765625 34.546875 C-44 36 -44 36 -47 37 C-45.46798474 33.55296566 -43.34730584 30.93413229 -41 28 C-40.690625 27.29875 -40.38125 26.5975 -40.0625 25.875 C-39 24 -39 24 -36.625 22.625 C-32.86716756 20.29872278 -30.88267341 17.07469499 -29.1640625 13.03515625 C-27.68773147 10.45405401 -25.93951385 9.14702675 -23.5625 7.375 C-22.78003906 6.78460938 -21.99757812 6.19421875 -21.19140625 5.5859375 C-16.2364532 2 -16.2364532 2 -13 2 C-11.906875 1.67 -10.81375 1.34 -9.6875 1 C-6.24219692 0.06568052 -3.53986678 -0.17267643 0 0 Z " fill="#E7E7E7" transform="translate(250,164)"/>
<path d="M0 0 C3.6580519 2.43870126 4.20965999 4.2039213 5.91796875 8.21484375 C6.18007645 8.82638809 6.44218414 9.43793243 6.7122345 10.06800842 C7.26357551 11.35982492 7.8104908 12.65353804 8.35327148 13.94897461 C9.18482749 15.93112963 10.03163398 17.90621973 10.88085938 19.88085938 C15 29.57310484 15 29.57310484 15 33 C12.69 33 10.38 33 8 33 C7.34 31.35 6.68 29.7 6 28 C2.37 28 -1.26 28 -5 28 C-5.99 30.475 -5.99 30.475 -7 33 C-9.31 33 -11.62 33 -14 33 C-9.91009347 21.73734282 -4.98896742 10.88635422 0 0 Z " fill="#0D0D0D" transform="translate(246,231)"/>
<path d="M0 0 C0.99 0.99 0.99 0.99 2 2 C-2.50595388 1.0453431 -6.97748897 0.03665924 -11.41015625 -1.21875 C-24.53294777 -4.87971139 -37.409497 -6.36071237 -51 -7 C-52.07241943 -7.05196533 -52.07241943 -7.05196533 -53.16650391 -7.10498047 C-78.80881596 -8.15734148 -103.01564703 -2.52191296 -127 6 C-127 5.34 -127 4.68 -127 4 C-127.99 3.67 -128.98 3.34 -130 3 C-120.43303402 -1.14032561 -111.29726485 -4.11028217 -101 -6 C-99.68941118 -6.26614121 -98.37952464 -6.53576088 -97.0703125 -6.80859375 C-65.87702155 -13.26777203 -29.74221396 -12.51268412 0 0 Z " fill="#E6E6E6" transform="translate(314,92)"/>
<path d="M0 0 C0.33 0 0.66 0 1 0 C1.17015625 1.29550781 1.3403125 2.59101563 1.515625 3.92578125 C6.41585258 40.3407917 17.43872382 72.69392681 43 100 C42.67 100.66 42.34 101.32 42 102 C16.99006533 78.87628945 0.86829161 43.84584099 -2 10 C-1.34 10 -0.68 10 0 10 C0 6.7 0 3.4 0 0 Z " fill="#E4E4E4" transform="translate(94,266)"/>
<path d="M0 0 C0.99 0.495 0.99 0.495 2 1 C1.28457031 1.52207031 0.56914062 2.04414062 -0.16796875 2.58203125 C-22.51784894 19.09145116 -40.51349909 37.52003434 -54 62 C-54.34514648 62.62310059 -54.69029297 63.24620117 -55.04589844 63.88818359 C-65.45981052 82.96079911 -70.41251534 102.6613895 -74 124 C-74.33 124 -74.66 124 -75 124 C-75.17492306 117.5343254 -74.63721738 111.69751477 -73.3125 105.375 C-73.13025879 104.499646 -72.94801758 103.62429199 -72.76025391 102.72241211 C-67.01322768 76.09679485 -53.9342157 51.4366644 -36 31 C-35.24847656 30.12730469 -34.49695313 29.25460938 -33.72265625 28.35546875 C-26.62273863 20.260349 -18.68989124 13.61628599 -10.125 7.125 C-8.98804688 6.25488281 -8.98804688 6.25488281 -7.828125 5.3671875 C-2.27264031 1.13632015 -2.27264031 1.13632015 0 0 Z " fill="#E5E5E5" transform="translate(163,114)"/>
<path d="M0 0 C0.33 0 0.66 0 1 0 C1.26306282 7.57219018 0.66380109 14.48813574 -1 21.875 C-1.22147705 22.86459717 -1.4429541 23.85419434 -1.67114258 24.8737793 C-11.41971691 66.21391986 -37.50086506 99.02039815 -71 124 C-71.66 123.67 -72.32 123.34 -73 123 C-72.34515625 122.47792969 -71.6903125 121.95585937 -71.015625 121.41796875 C-64.26584275 115.97428843 -57.77418473 110.33559742 -51.46875 104.38525391 C-50.05890448 103.05555586 -48.63903023 101.73651543 -47.21875 100.41796875 C-19.3706819 73.73023682 -5.62454765 37.42798179 0 0 Z " fill="#DEDEDE" transform="translate(424,266)"/>
<path d="M0 0 C2.31 0 4.62 0 7 0 C7 10.89 7 21.78 7 33 C4.69 33 2.38 33 0 33 C0 22.11 0 11.22 0 0 Z " fill="#1A1A1A" transform="translate(108,231)"/>
<path d="M0 0 C-0.14809992 4.88729721 -2.71554539 7.1244935 -6.015625 10.3515625 C-10.10246077 13.74653237 -13.97745571 15.48569088 -19.125 16.75 C-20.15882813 17.01296875 -21.19265625 17.2759375 -22.2578125 17.546875 C-25 18 -25 18 -28 17 C-20.62741751 7.56610363 -12.92125257 0 0 0 Z " fill="#FCFCFC" transform="translate(248,165)"/>
<path d="M0 0 C-0.33 0.99 -0.66 1.98 -1 3 C-1.65484375 2.85377197 -2.3096875 2.70754395 -2.984375 2.55688477 C-5.98874854 1.88827374 -8.99435036 1.22534983 -12 0.5625 C-13.02996094 0.33240234 -14.05992187 0.10230469 -15.12109375 -0.13476562 C-16.13300781 -0.35712891 -17.14492188 -0.57949219 -18.1875 -0.80859375 C-19.10917969 -1.01282959 -20.03085937 -1.21706543 -20.98046875 -1.42749023 C-30.23895295 -3.1829192 -39.42302002 -3.24054767 -48.8125 -3.25 C-49.98510376 -3.25200912 -49.98510376 -3.25200912 -51.18139648 -3.25405884 C-66.21861895 -3.24846521 -80.46568323 -2.17014546 -94.87109375 2.546875 C-97.28698429 3.06108289 -98.65623106 2.66325565 -101 2 C-95.02510016 0.2319887 -89.02864746 -1.42509028 -83 -3 C-81.75089844 -3.33 -80.50179687 -3.66 -79.21484375 -4 C-54.52484948 -9.40012493 -23.95047229 -7.90870396 0 0 Z " fill="#494949" transform="translate(303,86)"/>
<path d="M0 0 C0.33 0 0.66 0 1 0 C0.77556614 10.09952357 -6.81844638 17.92820686 -12.75 25.5625 C-13.22163574 26.17037354 -13.69327148 26.77824707 -14.17919922 27.40454102 C-16.31845529 30.10171446 -18.11266958 32.07511305 -21 34 C-20.505 31.03 -20.505 31.03 -20 28 C-20.66 28.33 -21.32 28.66 -22 29 C-20.42928054 25.40498434 -18.21996691 22.72937284 -15.6875 19.75 C-12.89190082 16.4024607 -10.34207672 13.13114832 -8.125 9.375 C-6 6 -6 6 -3 5 C-1.9590934 3.35857037 -0.95495674 1.69287785 0 0 Z " fill="#5C5C5C" transform="translate(406,334)"/>
<path d="M0 0 C0.33 0 0.66 0 1 0 C2.51748027 12.10685347 1.32905506 22.29063228 -2 34 C-2.35191406 35.24394531 -2.70382812 36.48789062 -3.06640625 37.76953125 C-5.42947584 45.36922893 -8.46063581 52.60731106 -11.6875 59.875 C-12.27664185 61.2060376 -12.27664185 61.2060376 -12.87768555 62.56396484 C-13.2519165 63.38590332 -13.62614746 64.2078418 -14.01171875 65.0546875 C-14.34647217 65.79187012 -14.68122559 66.52905273 -15.02612305 67.28857422 C-16 69 -16 69 -18 70 C-16.66666667 66 -15.33333333 62 -14 58 C-13.78327637 57.34330322 -13.56655273 56.68660645 -13.34326172 56.01000977 C-12.11466139 52.29818261 -10.86577334 48.59847377 -9.53515625 44.921875 C-4.32642929 30.31164856 -1.34128749 15.44637357 0 0 Z " fill="#8B8B8B" transform="translate(418,263)"/>
<path d="M0 0 C-0.4713587 5.79846015 -2.15238643 9.58500704 -5.0625 14.5625 C-10.65971166 24.56035629 -14.33980665 35.17350156 -18 46 C-19.92162652 39.22296601 -17.65101394 33.69991318 -14.83984375 27.52734375 C-13.82572387 25.00521095 -13.82572387 25.00521095 -14.1796875 22.23828125 C-13.91497016 17.46761447 -11.65667674 14.25425602 -9.1875 10.25 C-8.50977539 9.09951172 -8.50977539 9.09951172 -7.81835938 7.92578125 C-3.04756838 0 -3.04756838 0 0 0 Z " fill="#424242" transform="translate(118,164)"/>
<path d="M0 0 C0.33 0.66 0.66 1.32 1 2 C0.00390625 4.3828125 0.00390625 4.3828125 -1.4375 7.125 C-1.91058594 8.03507812 -2.38367188 8.94515625 -2.87109375 9.8828125 C-3.24363281 10.58148438 -3.61617188 11.28015625 -4 12 C-3.01 12.33 -2.02 12.66 -1 13 C-5.31831683 19.75587676 -9.84385377 26.28579269 -14.75 32.625 C-15.20930908 33.22844238 -15.66861816 33.83188477 -16.1418457 34.45361328 C-18.47672309 37.42836341 -20.38518436 39.69934204 -24 41 C-22.20908878 36.39479972 -20.25616163 32.2431099 -17.4609375 28.1640625 C-16.7189209 27.07134033 -16.7189209 27.07134033 -15.96191406 25.95654297 C-15.1763916 24.8024292 -15.1763916 24.8024292 -14.375 23.625 C-9.19134294 15.94336456 -4.44473288 8.13124663 0 0 Z " fill="#323232" transform="translate(404,321)"/>
<path d="M0 0 C-2.53981049 0.63341521 -5.08150884 1.25666853 -7.625 1.875 C-8.31851563 2.04902344 -9.01203125 2.22304688 -9.7265625 2.40234375 C-21.37787408 5.21114208 -32.96705698 6.36504876 -44.9375 6.3125 C-46.17717529 6.31121094 -47.41685059 6.30992187 -48.6940918 6.30859375 C-60.27585009 6.18996618 -71.58661121 4.90363782 -83 3 C-79.77380892 0.84920594 -79.48060962 0.77615443 -75.9140625 1.2421875 C-75.08060303 1.33927002 -74.24714355 1.43635254 -73.38842773 1.53637695 C-72.47649658 1.64812256 -71.56456543 1.75986816 -70.625 1.875 C-49.50337483 4.09189345 -26.60380182 5.07180462 -5.89282227 -0.57446289 C-3.62625798 -1.08402326 -2.18745513 -0.70311058 0 0 Z " fill="#494949" transform="translate(304,420)"/>
<path d="M0 0 C0.6796875 1.7890625 0.6796875 1.7890625 1 4 C-0.1171875 5.6484375 -0.1171875 5.6484375 -1.875 7.375 C-5.36502129 11.10473992 -8.17787012 15.03380781 -10.9375 19.3125 C-11.33888184 19.92335449 -11.74026367 20.53420898 -12.15380859 21.16357422 C-14.47872836 24.78594988 -14.47872836 24.78594988 -15 29 C-16.27864663 31.61152157 -17.59519209 34.14603163 -19 36.6875 C-19.3815625 37.38939453 -19.763125 38.09128906 -20.15625 38.81445312 C-21.09859522 40.54601247 -22.04857268 42.27341426 -23 44 C-23.66 43.67 -24.32 43.34 -25 43 C-23.99806563 39.20696275 -23.18975773 36.28463659 -21 33 C-20.88785156 32.09765625 -20.77570313 31.1953125 -20.66015625 30.265625 C-19.80237042 26.02237677 -17.88925036 23.25902251 -15.4375 19.75 C-14.99148437 19.09684814 -14.54546875 18.44369629 -14.0859375 17.77075195 C-9.79791592 11.56090873 -5.34672127 5.34672127 0 0 Z " fill="#404040" transform="translate(126,139)"/>
<path d="M0 0 C0.33 0.99 0.66 1.98 1 3 C1.66 3.33 2.32 3.66 3 4 C-0.68672041 14.39844219 -4.84430805 24.23774306 -10 34 C-10.66 33.34 -11.32 32.68 -12 32 C-13.485 34.475 -13.485 34.475 -15 37 C-15.66 36.67 -16.32 36.34 -17 36 C-16.35933594 34.90945313 -15.71867187 33.81890625 -15.05859375 32.6953125 C-8.95242262 22.11301747 -4.10573922 11.50150787 0 0 Z " fill="#2B2B2B" transform="translate(418,303)"/>
<path d="M0 0 C0.66 0.33 1.32 0.66 2 1 C-0.10568318 5.01805775 -2.18000611 7.12000408 -5.9375 9.625 C-15.16022634 16.0870162 -23.14078322 23.96216466 -31 32 C-31.67211914 30.20483398 -31.67211914 30.20483398 -32 28 C-30.92358398 26.34008789 -30.92358398 26.34008789 -29.24609375 24.72265625 C-28.3344043 23.82836914 -28.3344043 23.82836914 -27.40429688 22.91601562 C-26.75525391 22.30435547 -26.10621094 21.69269531 -25.4375 21.0625 C-24.81552734 20.45470703 -24.19355469 19.84691406 -23.55273438 19.22070312 C-13.00126416 9 -13.00126416 9 -9 9 C-8.814375 8.443125 -8.62875 7.88625 -8.4375 7.3125 C-6.33639286 3.93245808 -3.29334006 2.14859619 0 0 Z " fill="#B6B6B6" transform="translate(159,109)"/>
<path d="M0 0 C0 4.27100573 -2.31559898 5.79181342 -5 9 C-5.21269531 9.93972656 -5.21269531 9.93972656 -5.4296875 10.8984375 C-6.2106784 13.77633547 -7.76888461 15.41805209 -9.6875 17.6875 C-13.46426615 22.26725427 -16.8102697 26.99792294 -20 32 C-20.66 31.34 -21.32 30.68 -22 30 C-22.66 30.66 -23.32 31.32 -24 32 C-23.40773882 27.83374897 -21.03166802 24.82010793 -18.625 21.5 C-18.18671875 20.88995117 -17.7484375 20.27990234 -17.296875 19.65136719 C-12.11143771 12.57998342 -6.19478213 6.19478213 0 0 Z " fill="#393939" transform="translate(139,135)"/>
<path d="M0 0 C2.17218646 3.25827969 3.33410691 6.53105949 4.625 10.1875 C10.15357601 25.332647 17.57040071 39.89054982 28.03125 52.24609375 C29 54 29 54 28.56054688 56.10961914 C28.37556641 56.73344482 28.19058594 57.35727051 28 58 C0 19.40684411 0 19.40684411 0 0 Z " fill="#404040" transform="translate(100,299)"/>
<path d="M0 0 C2 3 2 3 1.75 5.5625 C1 8 1 8 -1 10 C-4.625 9.625 -4.625 9.625 -8 9 C-9.32561852 2.61292897 -9.32561852 2.61292897 -7.9375 0 C-4.99948754 -1.51639353 -3.09843192 -0.92293717 0 0 Z " fill="#3F3F3F" transform="translate(345,292)"/>
<path d="M0 0 C-0.51881113 4.1724106 -1.71151274 6.25416821 -4.5625 9.3125 C-5.20316406 10.00988281 -5.84382813 10.70726562 -6.50390625 11.42578125 C-6.99761719 11.94527344 -7.49132812 12.46476563 -8 13 C-8.66 12.67 -9.32 12.34 -10 12 C-9.50628906 11.45730469 -9.01257813 10.91460937 -8.50390625 10.35546875 C-7.54291016 9.28232422 -7.54291016 9.28232422 -6.5625 8.1875 C-5.92441406 7.47980469 -5.28632813 6.77210938 -4.62890625 6.04296875 C-2.80913988 4.00103848 -2.80913988 4.00103848 -2 1 C-12.97047199 4.09972971 -21.00837841 7.10375753 -27.75 16.8125 C-29.79552359 19.71032509 -30.71626036 20.90542012 -34 22 C-33.54625 21.278125 -33.0925 20.55625 -32.625 19.8125 C-30.95708174 17.14764045 -30.95708174 17.14764045 -30.20703125 14.5859375 C-28.69817227 11.35336583 -26.89059343 9.95952541 -24.0625 7.8125 C-23.18722656 7.13832031 -22.31195313 6.46414062 -21.41015625 5.76953125 C-16.27593819 2 -16.27593819 2 -13 2 C-11.906875 1.67 -10.81375 1.34 -9.6875 1 C-6.24219692 0.06568052 -3.53986678 -0.17267643 0 0 Z " fill="#908F8E" transform="translate(250,164)"/>
<path d="M0 0 C0.796875 1.67578125 0.796875 1.67578125 1 4 C-0.921875 6.48046875 -0.921875 6.48046875 -3.75 9.1875 C-4.245 9.66292236 -4.74 10.13834473 -5.25 10.62817383 C-19.36359164 24 -19.36359164 24 -24 24 C-21.85990032 19.9528808 -19.55668354 17.58807529 -15.9375 14.8125 C-10.17580918 10.24924087 -5.09484982 5.29378105 0 0 Z " fill="#A5A5A5" transform="translate(384,366)"/>
<path d="M0 0 C5.4 -0.36 5.4 -0.36 7.875 1.125 C9.52149743 3.86916239 9.39964378 5.8694571 9 9 C5.5647952 11.29013653 4.014669 11.17842973 0 11 C0 7.37 0 3.74 0 0 Z " fill="#414141" transform="translate(189,291)"/>
<path d="M0 0 C0.66 0.33 1.32 0.66 2 1 C1.67 1.33 1.34 1.66 1 2 C1.66 2.66 2.32 3.32 3 4 C-11.59681093 12.6309795 -11.59681093 12.6309795 -19 15 C-18.0411493 11.21088653 -17.1299699 10.0893845 -13.84765625 7.83203125 C-12.59407621 7.14381713 -11.3319544 6.47097332 -10.0625 5.8125 C-8.80303518 5.13215838 -7.54390867 4.45119003 -6.28515625 3.76953125 C-4.65900391 2.89361328 -4.65900391 2.89361328 -3 2 C-2.01 1.34 -1.02 0.68 0 0 Z " fill="#3C3C3C" transform="translate(179,101)"/>
<path d="M0 0 C4.17812938 3.50034395 5.85607862 7.51490498 7.875 12.4375 C8.216521 13.26064697 8.55804199 14.08379395 8.90991211 14.93188477 C11.48722499 21.3297981 13.63420738 27.81687444 15.5625 34.4375 C15.82595215 35.33073975 16.0894043 36.22397949 16.36083984 37.14428711 C16.59367676 37.9822583 16.82651367 38.82022949 17.06640625 39.68359375 C17.27209229 40.42150146 17.47777832 41.15940918 17.68969727 41.91967773 C18.03554239 44.23828225 17.71456867 45.78568072 17 48 C16.82460693 47.3922876 16.64921387 46.7845752 16.46850586 46.15844727 C13.44305401 35.75312744 10.40533398 25.39443502 6.25 15.375 C5.82835571 14.35708374 5.82835571 14.35708374 5.39819336 13.31860352 C4.19033707 10.49044344 2.90744921 7.84928656 1.296875 5.2265625 C0 3 0 3 0 0 Z " fill="#585858" transform="translate(398,172)"/>
<path d="M0 0 C0.99 0.33 1.98 0.66 3 1 C-5.45321653 9.83234751 -14.21261984 17.67541563 -24 25 C-24.79277344 25.59554688 -25.58554687 26.19109375 -26.40234375 26.8046875 C-26.92957031 27.19914062 -27.45679688 27.59359375 -28 28 C-28.66 27.67 -29.32 27.34 -30 27 C-29.34515625 26.47792969 -28.6903125 25.95585937 -28.015625 25.41796875 C-18.16738977 17.47539486 -8.84839718 9.04949711 0 0 Z " fill="#DBDBDB" transform="translate(381,362)"/>
<path d="M0 0 C-2.22240222 2.51749297 -4.04417348 3.58856601 -7.23046875 4.60546875 C-8.43413086 4.99702148 -8.43413086 4.99702148 -9.66210938 5.39648438 C-10.49548828 5.65751953 -11.32886719 5.91855469 -12.1875 6.1875 C-13.03248047 6.46013672 -13.87746094 6.73277344 -14.74804688 7.01367188 C-16.829557 7.6839887 -18.91339988 8.34573515 -21 9 C-21 8.34 -21 7.68 -21 7 C-21.99 6.67 -22.98 6.34 -24 6 C-21.64960987 5.01083967 -19.29533139 4.03363319 -16.9375 3.0625 C-16.28072266 2.78470703 -15.62394531 2.50691406 -14.94726562 2.22070312 C-4.2808689 -2.14043445 -4.2808689 -2.14043445 0 0 Z " fill="#E0E0E0" transform="translate(208,89)"/>
<path d="M0 0 C0.99 0 1.98 0 3 0 C2.35714676 6.23505228 1.49994065 12.3861106 0.4375 18.5625 C0.29892578 19.38041016 0.16035156 20.19832031 0.01757812 21.04101562 C-0.3193499 23.02772915 -0.65934584 25.01392199 -1 27 C-1.99 26.34 -2.98 25.68 -4 25 C-3.55046968 16.39691968 -2.13898002 8.34067679 0 0 Z " fill="#BDBDBD" transform="translate(96,211)"/>
<path d="M0 0 C0.66 0 1.32 0 2 0 C1.59186425 4.40786605 0.95860899 8.37987944 -0.40625 12.59375 C-2.08011165 18.04172917 -3.17618957 23.52147452 -4.1875 29.125 C-4.36474609 30.08148438 -4.54199219 31.03796875 -4.72460938 32.0234375 C-5.15467181 34.34809932 -5.57972405 36.67355267 -6 39 C-6.33 39 -6.66 39 -7 39 C-7.19257831 32.40585315 -6.56185189 26.50338157 -5.1875 20.0625 C-5.00735352 19.18948242 -4.82720703 18.31646484 -4.64160156 17.41699219 C-3.39413533 11.50201515 -1.91295865 5.73887594 0 0 Z " fill="#D0D0D0" transform="translate(95,199)"/>
<path d="M0 0 C0.33 0 0.66 0 1 0 C2.13116688 10.49395782 2.35439051 19.80383502 -1 30 C-1.66 30.66 -2.32 31.32 -3 32 C-4.35940226 27.387095 -3.55521644 23.4137401 -2.625 18.8125 C-1.43107805 12.54255794 -0.50557156 6.37020163 0 0 Z " fill="#BFBFBF" transform="translate(418,263)"/>
<path d="M0 0 C0.99 0.33 1.98 0.66 3 1 C1.77981698 3.98292226 0.54717024 6.96054824 -0.6875 9.9375 C-1.02716797 10.76830078 -1.36683594 11.59910156 -1.71679688 12.45507812 C-4.11071119 18.20494708 -6.86191722 23.62077802 -10 29 C-10.66 28.67 -11.32 28.34 -12 28 C-11.70754395 27.36497559 -11.41508789 26.72995117 -11.11376953 26.07568359 C-9.78096316 23.17692225 -8.45294447 20.27599164 -7.125 17.375 C-6.66480469 16.37597656 -6.20460938 15.37695312 -5.73046875 14.34765625 C-3.57254603 9.62524566 -1.48138304 4.98902562 0 0 Z " fill="#292929" transform="translate(413,304)"/>
<path d="M0 0 C4.05345712 1.35115237 5.52681121 4.0672925 7.875 7.4375 C8.31827637 8.06479004 8.76155273 8.69208008 9.21826172 9.33837891 C12.67242834 14.31842142 15.5664739 19.44131406 18 25 C17.34 25.33 16.68 25.66 16 26 C15.34773438 24.9378125 14.69546875 23.875625 14.0234375 22.78125 C8.50654827 13.74556019 8.50654827 13.74556019 2.375 5.125 C0 2 0 2 0 0 Z " fill="#2E2E2E" transform="translate(381,147)"/>
<path d="M0 0 C0.66 0.33 1.32 0.66 2 1 C1.28457031 1.52207031 0.56914062 2.04414062 -0.16796875 2.58203125 C-5.89779973 6.81454546 -11.49626654 11.15072168 -16.9375 15.75 C-17.73353638 16.42059448 -17.73353638 16.42059448 -18.5456543 17.10473633 C-21.86042987 19.93212198 -24.95924245 22.88644347 -28 26 C-28.99 25.67 -29.98 25.34 -31 25 C-10.60294118 5.30147059 -10.60294118 5.30147059 0 0 Z " fill="#DCDCDC" transform="translate(163,114)"/>
<path d="M0 0 C0.33 0 0.66 0 1 0 C0.84330144 7.05143532 -2.55012365 12.62711436 -7 18 C-7.99 18 -8.98 18 -10 18 C-9.01 16.35 -8.02 14.7 -7 13 C-7.66 12.34 -8.32 11.68 -9 11 C-6.375 6.125 -6.375 6.125 -3 5 C-1.9590934 3.35857037 -0.95495674 1.69287785 0 0 Z " fill="#454545" transform="translate(406,334)"/>
<path d="M0 0 C0.69140625 1.76953125 0.69140625 1.76953125 1 4 C-0.22265625 5.82421875 -0.22265625 5.82421875 -2.0625 7.6875 C-5.93158847 11.81297385 -8.98424637 16.22781843 -12 21 C-12.65625 19.265625 -12.65625 19.265625 -13 17 C-10.01525903 10.59724921 -4.74622553 5.15344607 0 0 Z " fill="#666666" transform="translate(126,139)"/>
<path d="M0 0 C4.15940509 1.60053118 6.76662906 4.64772764 9.6875 7.875 C10.20989258 8.44565186 10.73228516 9.01630371 11.27050781 9.60424805 C16.24472291 15.11943559 20.68793721 20.95657866 25 27 C24.34 27.66 23.68 28.32 23 29 C22.55011719 28.35675781 22.10023438 27.71351563 21.63671875 27.05078125 C16.896678 20.39192641 11.84430085 14.1364218 6.515625 7.9453125 C4.28769332 5.33683349 2.12574996 2.69195439 0 0 Z " fill="#C1C1C1" transform="translate(370,133)"/>
<path d="M0 0 C0.66 0.33 1.32 0.66 2 1 C-0.27780129 5.98269033 -4.01734276 8.89040722 -9 11 C-9.99 10.67 -10.98 10.34 -12 10 C-12 9.01 -12 8.02 -12 7 C-11.30132812 6.66226562 -10.60265625 6.32453125 -9.8828125 5.9765625 C-8.97273438 5.53054688 -8.06265625 5.08453125 -7.125 4.625 C-6.22007812 4.18414062 -5.31515625 3.74328125 -4.3828125 3.2890625 C-1.90465528 2.09497301 -1.90465528 2.09497301 0 0 Z " fill="#393939" transform="translate(358,385)"/>
<path d="M0 0 C0.33 0.66 0.66 1.32 1 2 C-0.98 2.33 -2.96 2.66 -5 3 C-5 4.65 -5 6.3 -5 8 C-4.34 8 -3.68 8 -3 8 C-3 7.34 -3 6.68 -3 6 C-1.68 6 -0.36 6 1 6 C1 7.65 1 9.3 1 11 C-4.42857143 11.36190476 -4.42857143 11.36190476 -6.875 9.8125 C-8.40659584 7.34492892 -8.42822025 5.85480169 -8 3 C-5.82311273 -0.32261741 -3.79605352 -0.30778812 0 0 Z " fill="#414141" transform="translate(327,291)"/>
<path d="M0 0 C0.66 0.33 1.32 0.66 2 1 C1.49701212 5.40114397 -0.08772731 7.71195019 -3 11 C-3.33 10.34 -3.66 9.68 -4 9 C-5.485 11.475 -5.485 11.475 -7 14 C-7.66 13.67 -8.32 13.34 -9 13 C-7.88147781 11.01716521 -6.75498675 9.03882377 -5.625 7.0625 C-4.68527344 5.40927734 -4.68527344 5.40927734 -3.7265625 3.72265625 C-2 1 -2 1 0 0 Z " fill="#343434" transform="translate(410,326)"/>
<path d="M0 0 C2.39485693 3.5922854 2.17558429 4.96005459 1.9765625 9.19921875 C1.89921875 11.01196289 1.89921875 11.01196289 1.8203125 12.86132812 C1.75585938 14.12396484 1.69140625 15.38660156 1.625 16.6875 C1.56828125 17.96173828 1.5115625 19.23597656 1.453125 20.54882812 C1.31150935 23.69977629 1.16008115 26.84994472 1 30 C0.67 30 0.34 30 0 30 C-0.33 24.06 -0.66 18.12 -1 12 C-1.33 12 -1.66 12 -2 12 C-1.85962479 10.18706911 -1.71255111 8.3746557 -1.5625 6.5625 C-1.48128906 5.55316406 -1.40007812 4.54382813 -1.31640625 3.50390625 C-1 1 -1 1 0 0 Z " fill="#E1E1E1" transform="translate(93,235)"/>
<path d="M0 0 C0.99 0.33 1.98 0.66 3 1 C2.01 2.485 2.01 2.485 1 4 C1 4.99 1 5.98 1 7 C-0.27754554 9.0360882 -1.60699818 11.04109119 -3 13 C-3.66 12.34 -4.32 11.68 -5 11 C-5.66 11.66 -6.32 12.32 -7 13 C-6.36610765 9.50155614 -4.94822306 7.15913124 -2.9375 4.25 C-2.38964844 3.45078125 -1.84179688 2.6515625 -1.27734375 1.828125 C-0.85582031 1.22484375 -0.43429688 0.6215625 0 0 Z " fill="#343434" transform="translate(122,154)"/>
<path d="M0 0 C0.33 0.66 0.66 1.32 1 2 C0.00390625 4.3828125 0.00390625 4.3828125 -1.4375 7.125 C-1.91058594 8.03507812 -2.38367188 8.94515625 -2.87109375 9.8828125 C-3.24363281 10.58148438 -3.61617188 11.28015625 -4 12 C-3.01 12.33 -2.02 12.66 -1 13 C-1.99 13.33 -2.98 13.66 -4 14 C-5.22445284 15.62948064 -5.22445284 15.62948064 -6.1875 17.5625 C-6.785625 18.696875 -7.38375 19.83125 -8 21 C-9.12451172 19.25683594 -9.12451172 19.25683594 -10 17 C-9.30908203 14.98535156 -9.30908203 14.98535156 -8.0078125 12.890625 C-7.55019531 12.13652344 -7.09257812 11.38242187 -6.62109375 10.60546875 C-5.88052734 9.43951172 -5.88052734 9.43951172 -5.125 8.25 C-4.39603516 7.06083984 -4.39603516 7.06083984 -3.65234375 5.84765625 C-2.4489169 3.88913805 -1.23135033 1.94103862 0 0 Z " fill="#3F3F3F" transform="translate(404,321)"/>
<path d="M0 0 C1.2065625 0.0309375 1.2065625 0.0309375 2.4375 0.0625 C3.0625 2.9375 3.0625 2.9375 3.4375 6.0625 C2.7775 6.7225 2.1175 7.3825 1.4375 8.0625 C-2.09821429 7.52678571 -2.09821429 7.52678571 -3.5625 6.0625 C-3.6875 3.5625 -3.6875 3.5625 -3.5625 1.0625 C-2.5625 0.0625 -2.5625 0.0625 0 0 Z " fill="#F4F4F4" transform="translate(341.5625,292.9375)"/>
<path d="M0 0 C0.66 0.33 1.32 0.66 2 1 C-1.20835538 6.82530885 -4.7045931 10.97121781 -10 15 C-10 11.2731779 -8.62088746 10.18986698 -6.234375 7.48828125 C-4.87646429 5.9655279 -4.87646429 5.9655279 -3.875 3.75 C-3 2 -3 2 0 0 Z " fill="#B4B4B3" transform="translate(214,186)"/>
<path d="M0 0 C5.875 4.75 5.875 4.75 7 7 C7.33 4.69 7.66 2.38 8 0 C8.33 0 8.66 0 9 0 C9 3.3 9 6.6 9 10 C5 8 5 8 3 6 C2.67 7.65 2.34 9.3 2 11 C1.34 11 0.68 11 0 11 C0 7.37 0 3.74 0 0 Z " fill="#373737" transform="translate(274,291)"/>
<path d="M0 0 C2.37976174 7.13928521 -1.41022942 14.33886916 -4 21 C-6.14536665 13.43389776 -2.98315689 6.89594871 0 0 Z " fill="#898989" transform="translate(104,189)"/>
<path d="M0 0 C1.1446875 0.3403125 1.1446875 0.3403125 2.3125 0.6875 C2.3125 1.0175 2.3125 1.3475 2.3125 1.6875 C0.3325 2.3475 -1.6475 3.0075 -3.6875 3.6875 C-3.6875 5.0075 -3.6875 6.3275 -3.6875 7.6875 C-2.0375 8.0175 -0.3875 8.3475 1.3125 8.6875 C1.3125 8.0275 1.3125 7.3675 1.3125 6.6875 C0.6525 6.3575 -0.0075 6.0275 -0.6875 5.6875 C0.6325 5.6875 1.9525 5.6875 3.3125 5.6875 C2.9825 7.3375 2.6525 8.9875 2.3125 10.6875 C-0.5625 10.8125 -0.5625 10.8125 -3.6875 10.6875 C-5.6875 8.6875 -5.6875 8.6875 -6 5.75 C-5.6875 2.6875 -5.6875 2.6875 -4.5 0.75 C-2.6875 -0.3125 -2.6875 -0.3125 0 0 Z " fill="#383838" transform="translate(297.6875,291.3125)"/>
<path d="M0 0 C2.31 0 4.62 0 7 0 C7 0.66 7 1.32 7 2 C5.35 2 3.7 2 2 2 C2 2.99 2 3.98 2 5 C3.65 5 5.3 5 7 5 C7 5.33 7 5.66 7 6 C5.35 6 3.7 6 2 6 C2 7.32 2 8.64 2 10 C3.65 10 5.3 10 7 10 C7 10.33 7 10.66 7 11 C4.69 11 2.38 11 0 11 C0 7.37 0 3.74 0 0 Z " fill="#3F3F3F" transform="translate(206,291)"/>
<path d="M0 0 C2.475 0.495 2.475 0.495 5 1 C5.6875 2.8125 5.6875 2.8125 6 5 C4.75 6.75 4.75 6.75 3 8 C2.01 8 1.02 8 0 8 C0 5.36 0 2.72 0 0 Z " fill="#EDEDED" transform="translate(191,293)"/>
<path d="M0 0 C0.33 0.99 0.66 1.98 1 3 C-0.57698762 4.63115895 -2.16184366 6.25471333 -3.75 7.875 C-4.63171875 8.77992188 -5.5134375 9.68484375 -6.421875 10.6171875 C-8.61636684 12.64542996 -10.2667136 13.88880413 -13 15 C-11.38989473 10.92623969 -8.46177729 8.23492931 -5.375 5.25 C-4.859375 4.74339844 -4.34375 4.23679687 -3.8125 3.71484375 C-2.54616661 2.47196098 -1.2736856 1.23534724 0 0 Z " fill="#1C1C1C" transform="translate(375,365)"/>
<path d="M0 0 C0.33 0.66 0.66 1.32 1 2 C-0.41264355 3.91974636 -1.82991071 5.83577306 -3.25 7.75 C-3.64574219 8.28882813 -4.04148437 8.82765625 -4.44921875 9.3828125 C-6.76963229 12.50205693 -9.17412991 15.32968239 -12 18 C-12.66 17.67 -13.32 17.34 -14 17 C-13.32453125 16.19175781 -12.6490625 15.38351562 -11.953125 14.55078125 C-11.05205664 13.47137645 -10.15101648 12.39194811 -9.25 11.3125 C-8.8065625 10.78205078 -8.363125 10.25160156 -7.90625 9.70507812 C-5.23206912 6.49999369 -2.59593445 3.26917914 0 0 Z " fill="#E6E6E6" transform="translate(396,344)"/>
<path d="M0 0 C0.66 0 1.32 0 2 0 C5.125 6.625 5.125 6.625 4 10 C3.67 9.01 3.34 8.02 3 7 C1.02463255 7.34786708 1.02463255 7.34786708 -1 8 C-1.33 8.66 -1.66 9.32 -2 10 C-2.66 9.67 -3.32 9.34 -4 9 C-2.68 6.03 -1.36 3.06 0 0 Z " fill="#484848" transform="translate(176,292)"/>
<path d="M0 0 C0.66 0.33 1.32 0.66 2 1 C-0.64 5.95 -3.28 10.9 -6 16 C-6.66 15.67 -7.32 15.34 -8 15 C-6.99806563 11.20696275 -6.18975773 8.28463659 -4 5 C-3.34 5 -2.68 5 -2 5 C-1.34 3.35 -0.68 1.7 0 0 Z " fill="#3E3E3E" transform="translate(109,167)"/>
<path d="M0 0 C0.66 0 1.32 0 2 0 C3.35517144 1.70129749 4.63522958 3.46285924 5.875 5.25 C8.36430051 8.82777792 10.82336791 12.00855274 14 15 C13.67 15.66 13.34 16.32 13 17 C3.52467698 7.73628469 3.52467698 7.73628469 0 3 C0 2.01 0 1.02 0 0 Z " fill="#D9D9D9" transform="translate(123,351)"/>
<path d="M0 0 C0 0.66 0 1.32 0 2 C-2.90600261 3.25664978 -4.79604584 4 -8 4 C-8 3.34 -8 2.68 -8 2 C-11.3 2 -14.6 2 -18 2 C-18 1.34 -18 0.68 -18 0 C-16.73542969 0.01740234 -16.73542969 0.01740234 -15.4453125 0.03515625 C-14.34960938 0.04417969 -13.25390625 0.05320313 -12.125 0.0625 C-10.48917969 0.07990234 -10.48917969 0.07990234 -8.8203125 0.09765625 C-0.62086093 -0.18625828 -0.62086093 -0.18625828 0 0 Z " fill="#A3A3A2" transform="translate(312,185)"/>
<path d="M0 0 C0 0.99 0 1.98 0 3 C-5.11627907 8 -5.11627907 8 -10 8 C-12.33634657 7.68848712 -14.67038557 7.35840222 -17 7 C-14.42218094 4.42218094 -12.5598161 4.37870384 -9 4 C-8.67 4.33 -8.34 4.66 -8 5 C-4.62496331 3.8141763 -2.35277269 2.72426311 0 0 Z " fill="#9E9D9C" transform="translate(289,181)"/>
<path d="M0 0 C0.66 0.66 1.32 1.32 2 2 C-5.425 3.485 -5.425 3.485 -13 5 C-11 1 -11 1 -9.16015625 0.13671875 C-8.46792969 -0.01152344 -7.77570313 -0.15976563 -7.0625 -0.3125 C-6.02802734 -0.55419922 -6.02802734 -0.55419922 -4.97265625 -0.80078125 C-3 -1 -3 -1 0 0 Z " fill="#F0F0F0" transform="translate(220,86)"/>
<path d="M0 0 C0.66 0.33 1.32 0.66 2 1 C-0.23943282 4.35914922 -1.26842083 4.81681636 -5 6 C-5.99 6 -6.98 6 -8 6 C-9.56406528 6.15127402 -11.12659252 6.31902522 -12.6875 6.5 C-13.49574219 6.5928125 -14.30398437 6.685625 -15.13671875 6.78125 C-16.05904297 6.88953125 -16.05904297 6.88953125 -17 7 C-14.26742603 4.26742603 -11.65374533 3.9317752 -7.9375 2.9375 C-3.65050646 2.1007567 -3.65050646 2.1007567 0 0 Z " fill="#979696" transform="translate(238,177)"/>
<path d="M0 0 C0.99 0 1.98 0 3 0 C4.82421875 2.625 4.82421875 2.625 6.6875 6 C7.31011719 7.11375 7.93273437 8.2275 8.57421875 9.375 C9.04472656 10.24125 9.51523438 11.1075 10 12 C9.01 12 8.02 12 7 12 C5.17578125 9.8828125 5.17578125 9.8828125 3.3125 7.125 C2.37857422 5.76761719 2.37857422 5.76761719 1.42578125 4.3828125 C0 2 0 2 0 0 Z " fill="#EBEBEB" transform="translate(114,339)"/>
<path d="M0 0 C0.66 0.33 1.32 0.66 2 1 C0.75160427 2.41808059 -0.49879221 3.83439995 -1.75 5.25 C-2.44609375 6.03890625 -3.1421875 6.8278125 -3.859375 7.640625 C-5.84586916 9.83011856 -7.89101308 11.92901285 -10 14 C-10 9.88181592 -8.33436007 8.84145243 -5.5625 5.875 C-4.73878906 4.98554688 -3.91507813 4.09609375 -3.06640625 3.1796875 C-1 1 -1 1 0 0 Z " fill="#ECECEC" transform="translate(132,140)"/>
<path d="M0 0 C-0.55550695 3.59905908 -1.74887248 4.99909799 -4.5625 7.25 C-5.20316406 7.77078125 -5.84382813 8.2915625 -6.50390625 8.828125 C-6.99761719 9.21484375 -7.49132812 9.6015625 -8 10 C-8.66 9.67 -9.32 9.34 -10 9 C-7.90713868 5.03457855 -4.97813191 0 0 0 Z " fill="#CBCBCB" transform="translate(370,381)"/>
<path d="M0 0 C2.0625 0.4375 2.0625 0.4375 4 1 C2.68 1.33 1.36 1.66 0 2 C0.680625 2.556875 1.36125 3.11375 2.0625 3.6875 C3.0215625 4.8321875 3.0215625 4.8321875 4 6 C3.75 8.75 3.75 8.75 3 11 C1.35 11 -0.3 11 -2 11 C-1.67 10.34 -1.34 9.68 -1 9 C-0.01 9 0.98 9 2 9 C2 8.34 2 7.68 2 7 C0.68 6.34 -0.64 5.68 -2 5 C-1.125 1.125 -1.125 1.125 0 0 Z " fill="#343434" transform="translate(251,291)"/>
<path d="M0 0 C0 0.99 0 1.98 0 3 C1.98 3 3.96 3 6 3 C6 3.33 6 3.66 6 4 C3.66705225 4.04241723 1.33297433 4.04092937 -1 4 C-1.33 3.67 -1.66 3.34 -2 3 C-3.99958364 2.95919217 -6.00045254 2.95745644 -8 3 C-8 2.34 -8 1.68 -8 1 C-8.66 0.67 -9.32 0.34 -10 0 C-6.7169902 -1.6415049 -3.57454967 -0.51888624 0 0 Z " fill="#91908F" transform="translate(263,186)"/>
<path d="M0 0 C0.66 0 1.32 0 2 0 C0.45730076 4.72065967 -1.07794619 9.41664092 -3 14 C-3.66 13.67 -4.32 13.34 -5 13 C-4.54803755 11.39402675 -4.08817673 9.79027492 -3.625 8.1875 C-3.36976562 7.29417969 -3.11453125 6.40085938 -2.8515625 5.48046875 C-2 3 -2 3 0 0 Z " fill="#E0E0E0" transform="translate(101,186)"/>
<path d="M0 0 C0.66 0.33 1.32 0.66 2 1 C0.42391152 5.36455272 -1.04545943 8.88311967 -5.1875 11.25 C-5.785625 11.4975 -6.38375 11.745 -7 12 C-6.54625 11.278125 -6.0925 10.55625 -5.625 9.8125 C-3.95807877 7.08640429 -3.95807877 7.08640429 -2.9375 4.3125 C-2 2 -2 2 0 0 Z " fill="#969594" transform="translate(223,174)"/>
<path d="M0 0 C0.66 0 1.32 0 2 0 C0.47236536 4.08596252 -2.11084191 5.79826179 -5.625 8.25 C-6.62789063 8.95640625 -7.63078125 9.6628125 -8.6640625 10.390625 C-9.43492187 10.92171875 -10.20578125 11.4528125 -11 12 C-11.66 11.67 -12.32 11.34 -13 11 C-12.22914063 10.37351562 -11.45828125 9.74703125 -10.6640625 9.1015625 C-9.15972656 7.87566406 -9.15972656 7.87566406 -7.625 6.625 C-6.62726563 5.81289063 -5.62953125 5.00078125 -4.6015625 4.1640625 C-2.03639494 2.09734084 -2.03639494 2.09734084 0 0 Z " fill="#D5D5D5" transform="translate(364,378)"/>
<path d="M0 0 C0.33 0 0.66 0 1 0 C1.07654536 4.51617599 1.10228696 8.59085217 0 13 C-0.99 12.34 -1.98 11.68 -3 11 C-2.69217504 9.35328588 -2.37860766 7.70764424 -2.0625 6.0625 C-1.88847656 5.14597656 -1.71445312 4.22945313 -1.53515625 3.28515625 C-1 1 -1 1 0 0 Z " fill="#282828" transform="translate(421,276)"/>
<path d="M0 0 C0.71484375 1.734375 0.71484375 1.734375 1 4 C-0.43359375 6.140625 -0.43359375 6.140625 -2.4375 8.25 C-3.09621094 8.95640625 -3.75492187 9.6628125 -4.43359375 10.390625 C-4.95050781 10.92171875 -5.46742187 11.4528125 -6 12 C-6 7.58116545 -4.86839604 4.94501922 -1.875 1.6875 C-1.25625 1.130625 -0.6375 0.57375 0 0 Z " fill="#8E8E8E" transform="translate(126,139)"/>
<path d="M0 0 C0.66 0.33 1.32 0.66 2 1 C-3 7.57142857 -3 7.57142857 -8 9 C-6.64531705 4.12314139 -4.28324091 2.51407619 0 0 Z " fill="#EBEBEB" transform="translate(361,387)"/>
<path d="M0 0 C2.44413389 3.08269139 4.33109524 6.28471111 6.1875 9.75 C6.71730469 10.73484375 7.24710937 11.7196875 7.79296875 12.734375 C8.19128906 13.48203125 8.58960937 14.2296875 9 15 C8.01 15 7.02 15 6 15 C4.99267601 13.06629769 3.99436712 11.12789694 3 9.1875 C2.443125 8.10855469 1.88625 7.02960938 1.3125 5.91796875 C0 3 0 3 0 0 Z " fill="#383838" transform="translate(109,323)"/>
<path d="M0 0 C3.68006822 3.38168431 5.9785845 6.42521756 8 11 C7.01 11.33 6.02 11.66 5 12 C4.15885829 10.56705502 3.32734313 9.12845595 2.5 7.6875 C1.80390625 6.48673828 1.80390625 6.48673828 1.09375 5.26171875 C0 3 0 3 0 0 Z " fill="#E6E6E6" transform="translate(394,161)"/>
<path d="M0 0 C0 3.60573896 -0.81707462 4.41336566 -3 7.1875 C-3.556875 7.90292969 -4.11375 8.61835938 -4.6875 9.35546875 C-5.120625 9.89816406 -5.55375 10.44085938 -6 11 C-6.66 10.67 -7.32 10.34 -8 10 C-7.34 9.01 -6.68 8.02 -6 7 C-6 6.01 -6 5.02 -6 4 C-3.5625 2.375 -3.5625 2.375 -1 1 C-0.67 0.67 -0.34 0.34 0 0 Z " fill="#202020" transform="translate(130,148)"/>
<path d="M0 0 C2.475 0.495 2.475 0.495 5 1 C4.67 2.65 4.34 4.3 4 6 C2.68 5.67 1.36 5.34 0 5 C0 3.35 0 1.7 0 0 Z " fill="#747474" transform="translate(243,327)"/>
<path d="M0 0 C0.66 0.33 1.32 0.66 2 1 C-0.37277818 6.02470674 -3.21097855 7.56030983 -8 10 C-6.44303593 6.17836093 -3.96591316 3.81381505 -1 1 C-0.67 0.67 -0.34 0.34 0 0 Z " fill="#E5E5E5" transform="translate(159,109)"/>
<path d="M0 0 C0.66 0 1.32 0 2 0 C0.6062718 4.43458973 -1.60582235 6.87378374 -5 10 C-5.33 9.34 -5.66 8.68 -6 8 C-5.04956626 6.66102417 -4.08940853 5.32894573 -3.125 4 C-2.59132813 3.2575 -2.05765625 2.515 -1.5078125 1.75 C-1.01023437 1.1725 -0.51265625 0.595 0 0 Z " fill="#282828" transform="translate(395,348)"/>
<path d="M0 0 C0.99 0.33 1.98 0.66 3 1 C3 4.3 3 7.6 3 11 C2.34 11 1.68 11 1 11 C0.67 7.37 0.34 3.74 0 0 Z " fill="#F4F4F4" transform="translate(91,265)"/>
<path d="M0 0 C0.99 0.33 1.98 0.66 3 1 C2.46930939 4.82097239 1.50298434 7.06171403 -1 10 C-2.23076923 4.58461538 -2.23076923 4.58461538 -1.0625 1.625 C-0.5365625 0.820625 -0.5365625 0.820625 0 0 Z " fill="#6D6D6D" transform="translate(106,179)"/>
<path d="M0 0 C1.32 0 2.64 0 4 0 C2.66666667 3.33333333 1.33333333 6.66666667 0 10 C-0.99 10 -1.98 10 -3 10 C-2.690625 9.278125 -2.38125 8.55625 -2.0625 7.8125 C-1.07439461 5.19692691 -0.4712246 2.74881018 0 0 Z " fill="#858585" transform="translate(396,346)"/>
<path d="M0 0 C3 3.625 3 3.625 3 7 C1.35 7 -0.3 7 -2 7 C-1.125 2.25 -1.125 2.25 0 0 Z " fill="#EDEDED" transform="translate(246,245)"/>
<path d="M0 0 C0.33 0.99 0.66 1.98 1 3 C-4.625 7 -4.625 7 -8 7 C-5.42215154 4.35247996 -3.08351902 2.05567935 0 0 Z " fill="#2F2F2F" transform="translate(133,144)"/>
<path d="M0 0 C-0.33 0.99 -0.66 1.98 -1 3 C-4.0625 4.1875 -4.0625 4.1875 -7 5 C-7 3.68 -7 2.36 -7 1 C-4.53721199 -0.231394 -2.7204945 -0.07159196 0 0 Z " fill="#EEEEEE" transform="translate(187,96)"/>
<path d="M0 0 C0.66 0.33 1.32 0.66 2 1 C-0.625 5.875 -0.625 5.875 -4 7 C-4 5.68 -4 4.36 -4 3 C-2 1.25 -2 1.25 0 0 Z " fill="#858383" transform="translate(214,186)"/>
<path d="M0 0 C0.99 0.33 1.98 0.66 3 1 C3 2.98 3 4.96 3 7 C1.68 6.67 0.36 6.34 -1 6 C-0.67 5.34 -0.34 4.68 0 4 C-0.66 4 -1.32 4 -2 4 C-1.34 2.68 -0.68 1.36 0 0 Z " fill="#535353" transform="translate(235,326)"/>
<path d="M0 0 C0.66 0 1.32 0 2 0 C1.5020163 3.73487777 1.12508244 5.81237635 -1 9 C-1.66 9 -2.32 9 -3 9 C-2.01 6.03 -1.02 3.06 0 0 Z " fill="#2E2E2E" transform="translate(103,185)"/>
<path d="M0 0 C3.48331435 3.01887244 4.79157144 5.56909529 6 10 C5.34 10 4.68 10 4 10 C0 3.375 0 3.375 0 0 Z " fill="#393939" transform="translate(398,172)"/>
<path d="M0 0 C0.33 1.32 0.66 2.64 1 4 C-0.98 4.99 -0.98 4.99 -3 6 C-3.33 4.68 -3.66 3.36 -4 2 C-2.68 1.34 -1.36 0.68 0 0 Z " fill="#393939" transform="translate(389,349)"/>
<path d="M0 0 C0.33 0.99 0.66 1.98 1 3 C-1.64 4.98 -4.28 6.96 -7 9 C-7 6 -7 6 -5.46875 4.39453125 C-4.49421875 3.61142578 -4.49421875 3.61142578 -3.5 2.8125 C-2.8503125 2.28269531 -2.200625 1.75289062 -1.53125 1.20703125 C-1.0259375 0.80871094 -0.520625 0.41039062 0 0 Z " fill="#7A7978" transform="translate(232,167)"/>
<path d="M0 0 C0.66 1.32 1.32 2.64 2 4 C1.01 4.33 0.02 4.66 -1 5 C-2.68538601 6.99665314 -2.68538601 6.99665314 -4 9 C-5.125 5.25 -5.125 5.25 -4 3 C-3.01 3 -2.02 3 -1 3 C-0.67 2.01 -0.34 1.02 0 0 Z " fill="#656565" transform="translate(110,163)"/>
<path d="M0 0 C0.66 0.33 1.32 0.66 2 1 C-1.44615385 5.8 -1.44615385 5.8 -4.25 6.8125 C-5.11625 6.9053125 -5.11625 6.9053125 -6 7 C-2.25 1.125 -2.25 1.125 0 0 Z " fill="#F2F2F2" transform="translate(164,106)"/>
<path d="M0 0 C1.1875 1.625 1.1875 1.625 2 4 C0.625 7.25 0.625 7.25 -1 10 C-1.66 9.34 -2.32 8.68 -3 8 C-2.01 5.36 -1.02 2.72 0 0 Z " fill="#DCDCDC" transform="translate(413,310)"/>
<path d="M0 0 C0.33 0.99 0.66 1.98 1 3 C1.66 3.33 2.32 3.66 3 4 C2.01 5.485 2.01 5.485 1 7 C0.01 7 -0.98 7 -2 7 C-1.34 4.69 -0.68 2.38 0 0 Z " fill="#383838" transform="translate(418,303)"/>
<path d="M0 0 C1.32 0.33 2.64 0.66 4 1 C1.16569547 4.2542015 -0.68607774 5.5206753 -5 6 C-4.360625 5.566875 -3.72125 5.13375 -3.0625 4.6875 C-0.73253997 3.08760823 -0.73253997 3.08760823 0 0 Z " fill="#C5C5C4" transform="translate(227,182)"/>
<path d="M0 0 C1.32 0 2.64 0 4 0 C4 1.65 4 3.3 4 5 C2.35 4.67 0.7 4.34 -1 4 C-0.67 2.68 -0.34 1.36 0 0 Z " fill="#616161" transform="translate(324,297)"/>
<path d="M0 0 C-0.33 2.31 -0.66 4.62 -1 7 C-1.99 6.34 -2.98 5.68 -4 5 C-4 3.68 -4 2.36 -4 1 C-2 0 -2 0 0 0 Z " fill="#2D2D2D" transform="translate(93,206)"/>
</svg>
